<svg width="1200" height="320" viewBox="0 0 1200 320" fill="none" xmlns="http://www.w3.org/2000/svg">
  <defs>
    <linearGradient id="servifinance-logo-gradient" x1="30" y1="28" x2="234" y2="234" gradientUnits="userSpaceOnUse">
      <stop offset="0" stop-color="#4ED8CA" />
      <stop offset="0.56" stop-color="#6E96FF" />
      <stop offset="1" stop-color="#8A78FF" />
    </linearGradient>
    <linearGradient id="servifinance-logo-bridge" x1="88" y1="164" x2="164" y2="104" gradientUnits="userSpaceOnUse">
      <stop offset="0" stop-color="#E7FFFB" />
      <stop offset="1" stop-color="#FFFFFF" />
    </linearGradient>
  </defs>

  <g transform="translate(24 30)">
    <rect x="0" y="0" width="220" height="220" rx="54" fill="url(#servifinance-logo-gradient)" />
    <rect x="16" y="16" width="188" height="188" rx="40" fill="white" fill-opacity="0.08" stroke="white" stroke-opacity="0.28" stroke-width="2" />

    <path d="M62 52V144" stroke="white" stroke-width="14" stroke-linecap="round" />
    <circle cx="62" cy="52" r="12" fill="white" />
    <circle cx="62" cy="98" r="12" fill="white" fill-opacity="0.96" />
    <circle cx="62" cy="144" r="12" fill="white" />

    <path d="M78 144C87 129 100 115 118 104C127 98 137 94 152 94" stroke="url(#servifinance-logo-bridge)" stroke-width="16" stroke-linecap="round" />

    <rect x="114" y="58" width="52" height="14" rx="7" fill="white" />
    <rect x="114" y="94" width="64" height="14" rx="7" fill="white" />
    <rect x="114" y="130" width="42" height="14" rx="7" fill="white" />
  </g>

  <text x="284" y="138" fill="#161A2D" font-family="Segoe UI Variable, Segoe UI, Arial, sans-serif" font-size="82" font-weight="700" letter-spacing="-2.4">ServiFinance</text>
  <text x="290" y="188" fill="#5D6989" font-family="Segoe UI Variable, Segoe UI, Arial, sans-serif" font-size="28" font-weight="500" letter-spacing="-0.4">Unified service operations and micro-lending for tenant-based MSMEs</text>
</svg>
